<svg width="158" height="46" viewBox="0 0 158 46" fill="none" xmlns="http://www.w3.org/2000/svg">
<path d="M140 35.5486C157.5 35.5486 42 35.5486 42 35.5486M42 35.5486H4C4 35.5486 52 16.5486 42 23.5486C32 30.5487 35 30.0487 42 35.5486Z" stroke="#FF0000" stroke-width="3"/>
<path d="M61.768 19.718L62.006 19.886L62.118 20.222C62.09 20.2313 62.0573 20.2453 62.02 20.264C61.9547 20.3013 61.8753 20.3527 61.782 20.418C61.6887 20.474 61.5953 20.5347 61.502 20.6C61.418 20.656 61.3433 20.7073 61.278 20.754C61.222 20.7913 61.1893 20.81 61.18 20.81L61.012 20.894C60.9373 20.9407 60.8533 20.9827 60.76 21.02L60.494 21.16C60.4473 21.1787 60.4053 21.1973 60.368 21.216C60.34 21.2347 60.3073 21.2533 60.27 21.272C60.242 21.3467 60.1953 21.4307 60.13 21.524C60.0647 21.6173 59.9947 21.7107 59.92 21.804C59.8453 21.8973 59.766 21.9813 59.682 22.056C59.6073 22.1307 59.542 22.1913 59.486 22.238C59.4953 22.266 59.4953 22.2987 59.486 22.336C59.486 22.3733 59.472 22.4107 59.444 22.448C59.416 22.4947 59.388 22.5973 59.36 22.756C59.332 22.9053 59.304 23.0967 59.276 23.33C59.248 23.4047 59.1873 23.4653 59.094 23.512C59.01 23.5493 58.954 23.6053 58.926 23.68C58.9073 23.764 58.884 23.8573 58.856 23.96C58.8373 24.0627 58.8653 24.1233 58.94 24.142C59.0613 24.17 59.1313 24.1933 59.15 24.212C59.1313 24.3427 59.1127 24.4547 59.094 24.548C59.0847 24.632 59.0707 24.716 59.052 24.8C59.0427 24.884 59.0333 24.9727 59.024 25.066C59.0147 25.15 59.0053 25.2573 58.996 25.388C58.9773 25.6587 58.9633 25.8733 58.954 26.032C58.954 26.1813 58.9587 26.2747 58.968 26.312L59.304 27.432C59.388 27.4507 59.5 27.474 59.64 27.502C59.7893 27.5207 59.9667 27.5533 60.172 27.6C60.5733 27.6747 60.7833 27.6887 60.802 27.642C60.7927 27.5767 61.0167 27.488 61.474 27.376C61.9407 27.2733 62.174 27.1893 62.174 27.124L62.468 27.152L62.286 27.908C62.2673 27.9173 62.244 27.922 62.216 27.922C62.1973 27.922 62.1787 27.9267 62.16 27.936C62.1133 27.9453 62.062 27.9547 62.006 27.964C61.9593 27.9733 61.8987 27.9873 61.824 28.006C61.6747 28.034 61.558 28.0573 61.474 28.076C61.39 28.0853 61.3387 28.0947 61.32 28.104C61.096 28.132 60.9187 28.2393 60.788 28.426C60.6293 28.6127 60.5453 28.6827 60.536 28.636C60.4427 28.6733 60.3353 28.6593 60.214 28.594C60.1207 28.51 59.9293 28.5007 59.64 28.566L58.24 28.398L56.896 27.474C57.0453 27.362 56.98 26.9653 56.7 26.284C56.6253 26.1067 56.56 25.9527 56.504 25.822C56.4573 25.6913 56.4153 25.584 56.378 25.5C56.3593 25.4533 56.3407 25.4113 56.322 25.374C56.3127 25.3273 56.2987 25.2853 56.28 25.248C56.2707 25.0613 56.294 24.8513 56.35 24.618C56.4153 24.3753 56.462 24.1467 56.49 23.932L56.742 23.764C56.8727 23.68 56.966 23.596 57.022 23.512C57.078 23.428 57.05 23.3207 56.938 23.19C56.9567 23.078 56.9707 22.9567 56.98 22.826C56.9987 22.6953 57.0127 22.5693 57.022 22.448C57.0407 22.3267 57.0547 22.224 57.064 22.14C57.0733 22.056 57.078 22.0093 57.078 22L57.624 21.216C57.6427 21.1973 57.7033 21.174 57.806 21.146C57.9087 21.118 58.044 21.0807 58.212 21.034C58.296 21.0153 58.3567 20.9873 58.394 20.95C58.4407 20.9033 58.4733 20.8613 58.492 20.824C58.5107 20.7773 58.5247 20.7353 58.534 20.698C58.5527 20.6607 58.5713 20.6373 58.59 20.628L60.48 20.054C60.6387 20.026 60.816 19.984 61.012 19.928C61.208 19.872 61.3573 19.8067 61.46 19.732L61.768 19.718ZM61.306 25.248C61.3153 25.2387 61.32 25.2293 61.32 25.22V25.206C61.2547 25.1033 61.194 25.0193 61.138 24.954C61.082 24.8887 61.0447 24.8373 61.026 24.8L61.516 24.254H61.922C61.9407 24.254 61.9873 24.2587 62.062 24.268C62.146 24.268 62.258 24.2727 62.398 24.282C62.6687 24.3007 62.818 24.254 62.846 24.142H64.47C64.6193 24.142 64.7733 24.156 64.932 24.184C65.0907 24.212 65.226 24.2353 65.338 24.254C65.338 24.3193 65.324 24.422 65.296 24.562C65.268 24.6927 65.2493 24.8093 65.24 24.912C65.1747 24.94 65.0767 24.968 64.946 24.996C64.8247 25.024 64.7453 25.052 64.708 25.08L64.12 25.038L63.994 25.36C64.078 25.416 64.1573 25.444 64.232 25.444C64.3067 25.4347 64.4047 25.4393 64.526 25.458C64.5353 25.5327 64.526 25.6493 64.498 25.808C64.47 25.9573 64.4327 26.1533 64.386 26.396C64.3487 26.6387 64.3067 26.9233 64.26 27.25C64.2227 27.5767 64.1993 27.95 64.19 28.37L62.874 28.608L62.79 28.188C62.7993 28.1413 62.804 28.0153 62.804 27.81C62.8133 27.5953 62.8133 27.292 62.804 26.9C62.7947 26.704 62.79 26.522 62.79 26.354C62.79 26.186 62.79 26.032 62.79 25.892V25.234C62.5753 25.2527 62.3607 25.276 62.146 25.304C61.9407 25.332 61.796 25.36 61.712 25.388L61.488 25.402L61.306 25.248ZM74.416 23.75C74.444 23.9087 74.458 24.0487 74.458 24.17C74.458 24.282 74.4533 24.394 74.444 24.506C74.444 24.6087 74.4487 24.7113 74.458 24.814C74.4767 24.9073 74.514 25.01 74.57 25.122C74.5513 25.1593 74.5047 25.234 74.43 25.346C74.3647 25.4487 74.318 25.556 74.29 25.668C74.2713 25.7707 74.2573 25.85 74.248 25.906C74.2387 25.962 74.2293 25.9993 74.22 26.018C74.248 26.0367 74.2713 26.074 74.29 26.13C74.2993 26.1767 74.29 26.2373 74.262 26.312C74.234 26.3773 74.178 26.4707 74.094 26.592C73.926 26.816 73.8327 27.0073 73.814 27.166C73.7953 27.3153 73.758 27.432 73.702 27.516C73.6833 27.5347 73.6227 27.5627 73.52 27.6C73.4267 27.6373 73.3147 27.684 73.184 27.74C73.0533 27.7867 72.9227 27.8427 72.792 27.908C72.6613 27.9733 72.5587 28.0387 72.484 28.104C72.3253 28.132 72.1853 28.1693 72.064 28.216C71.9427 28.2627 71.7933 28.2953 71.616 28.314C71.448 28.3513 71.2753 28.398 71.098 28.454C70.9207 28.5007 70.8227 28.524 70.804 28.524C70.3653 28.524 70.104 28.538 70.02 28.566C69.9453 28.594 69.8567 28.608 69.754 28.608L68.48 28.146L67.892 27.292C67.892 27.068 67.8827 26.8813 67.864 26.732C67.8547 26.5733 67.8407 26.438 67.822 26.326C67.8033 26.2047 67.7893 26.0927 67.78 25.99C67.7707 25.8873 67.7707 25.7707 67.78 25.64C67.808 25.612 67.85 25.5467 67.906 25.444C67.962 25.332 68.018 25.206 68.074 25.066C68.1393 24.926 68.2 24.7813 68.256 24.632C68.3213 24.4827 68.368 24.3567 68.396 24.254C68.4707 24.0393 68.5267 23.8527 68.564 23.694C68.6013 23.526 68.6293 23.3767 68.648 23.246C68.7227 23.1993 68.7833 23.148 68.83 23.092C68.8767 23.036 68.9233 22.9893 68.97 22.952C69.3527 22.728 69.684 22.546 69.964 22.406C70.244 22.2567 70.5053 22.1633 70.748 22.126L71.168 22.098C71.2147 22.1073 71.2567 22.1167 71.294 22.126C71.3313 22.1353 71.3687 22.1447 71.406 22.154C71.462 22.1727 71.5133 22.1867 71.56 22.196C71.6067 22.196 71.6347 22.196 71.644 22.196L71.924 22.63C71.924 22.714 71.9053 22.784 71.868 22.84C71.8307 22.8867 71.868 22.9193 71.98 22.938C72.1013 22.966 72.1667 22.9847 72.176 22.994V23.008C72.3253 23.008 72.4793 22.9753 72.638 22.91C72.7967 22.8353 72.9553 22.798 73.114 22.798C73.1513 22.798 73.2167 22.8167 73.31 22.854C73.4033 22.882 73.5013 22.9193 73.604 22.966C73.7067 23.0127 73.8 23.0593 73.884 23.106C73.9773 23.1433 74.0427 23.1713 74.08 23.19C74.0613 23.33 74.066 23.428 74.094 23.484C74.122 23.54 74.1593 23.582 74.206 23.61C74.2527 23.6287 74.2947 23.6473 74.332 23.666C74.3787 23.6753 74.4067 23.7033 74.416 23.75ZM71.91 27.25C72.05 27.1567 72.1853 26.858 72.316 26.354C72.3907 26.0833 72.4513 25.8827 72.498 25.752C72.554 25.612 72.582 25.4813 72.582 25.36C72.582 25.1547 72.512 24.912 72.372 24.632C72.2973 24.4827 72.2413 24.3567 72.204 24.254C72.1667 24.1513 72.1387 24.0487 72.12 23.946C72.0453 23.9087 72.0033 23.8527 71.994 23.778C71.994 23.694 71.9567 23.61 71.882 23.526C71.7887 23.4513 71.7327 23.4233 71.714 23.442C71.6953 23.4607 71.6767 23.47 71.658 23.47H71.532C71.4573 23.47 71.3547 23.484 71.224 23.512C71.1027 23.54 71.0047 23.6053 70.93 23.708C70.818 23.8293 70.72 23.9273 70.636 24.002C70.5613 24.0673 70.5193 24.1093 70.51 24.128C70.4167 24.3053 70.3327 24.4593 70.258 24.59C70.1833 24.7113 70.1227 24.8093 70.076 24.884L69.95 25.178C69.894 25.318 69.8707 25.5047 69.88 25.738C69.8987 25.7753 69.9173 25.8593 69.936 25.99C69.9547 26.1113 69.8987 26.242 69.768 26.382C69.74 26.41 69.712 26.466 69.684 26.55C69.656 26.6247 69.6373 26.7133 69.628 26.816C69.6187 26.9187 69.628 27.0213 69.656 27.124C69.6933 27.2267 69.7633 27.3153 69.866 27.39C69.9967 27.4833 70.132 27.5767 70.272 27.67C70.412 27.754 70.5007 27.796 70.538 27.796H70.692C70.748 27.796 70.7993 27.81 70.846 27.838L71.91 27.25ZM88.4496 20.306C88.4683 20.4087 88.5103 20.474 88.5756 20.502C88.6503 20.53 88.6923 20.5673 88.7016 20.614C88.7203 20.7167 88.7436 20.8007 88.7716 20.866C88.8089 20.9313 88.8743 20.992 88.9676 21.048C89.0703 21.104 89.1309 21.1787 89.1496 21.272C89.1683 21.356 89.2149 21.44 89.2896 21.524C89.2989 21.5613 89.2989 21.6127 89.2896 21.678C89.2896 21.7433 89.2803 21.8087 89.2616 21.874C89.2523 21.93 89.2383 21.986 89.2196 22.042C89.2009 22.098 89.1869 22.1307 89.1776 22.14C89.1683 22.168 89.1589 22.196 89.1496 22.224C89.1403 22.252 89.1263 22.2847 89.1076 22.322C89.0889 22.3687 89.0609 22.4293 89.0236 22.504C88.9956 22.5693 88.9583 22.644 88.9116 22.728C88.7436 23.0547 88.6036 23.2647 88.4916 23.358C88.4823 23.3767 88.4356 23.386 88.3516 23.386C88.2769 23.386 88.1929 23.3907 88.0996 23.4C88.0063 23.4093 87.9223 23.428 87.8476 23.456C87.7729 23.484 87.7356 23.5353 87.7356 23.61C87.6703 23.6287 87.6423 23.6613 87.6516 23.708C87.6703 23.7453 87.6983 23.7873 87.7356 23.834C87.7823 23.8807 87.8243 23.9273 87.8616 23.974C87.8989 24.0113 87.9083 24.0347 87.8896 24.044C88.0483 24.0813 88.2303 24.0953 88.4356 24.086C88.6409 24.0767 88.8089 24.072 88.9396 24.072C88.9956 24.1747 89.0609 24.254 89.1356 24.31C89.2103 24.3567 89.3223 24.38 89.4716 24.38L90.3116 25.402L90.2696 26.774L89.8216 27.334C89.4949 27.334 89.2009 27.488 88.9396 27.796L88.5616 28.258C88.4589 28.3047 88.3236 28.3373 88.1556 28.356C87.9876 28.3653 87.7123 28.37 87.3296 28.37C87.0776 28.37 86.8303 28.3653 86.5876 28.356C86.3543 28.3467 86.1396 28.342 85.9436 28.342C85.7569 28.342 85.6029 28.3467 85.4816 28.356C85.3696 28.356 85.3136 28.37 85.3136 28.398C85.1643 28.37 85.0523 28.3607 84.9776 28.37C84.9029 28.3793 84.8376 28.3747 84.7816 28.356L83.3676 28.622L83.0176 28.328C83.0269 28.244 83.0409 28.146 83.0596 28.034C83.1063 27.8847 83.1343 27.7587 83.1436 27.656C83.1623 27.544 83.1716 27.4507 83.1716 27.376C83.1716 27.3573 83.1669 27.32 83.1576 27.264C83.1483 27.1987 83.1296 27.1473 83.1016 27.11L83.1576 26.256C83.3069 26.284 83.4376 26.256 83.5496 26.172L83.6476 25.892C83.5729 25.7613 83.5216 25.6633 83.4936 25.598C83.4656 25.5233 83.3863 25.486 83.2556 25.486L83.1716 24.618C83.2183 24.6087 83.2509 24.5853 83.2696 24.548C83.2883 24.5107 83.2976 24.4733 83.2976 24.436L83.3116 24.324C83.3303 24.2773 83.3489 24.2493 83.3676 24.24C83.4143 24.1093 83.4516 23.932 83.4796 23.708C83.5076 23.4747 83.5356 23.1993 83.5636 22.882C83.6009 22.5553 83.6243 22.2753 83.6336 22.042C83.6523 21.8087 83.6616 21.664 83.6616 21.608C83.6616 21.5987 83.6476 21.4587 83.6196 21.188C83.5916 20.9267 83.4656 20.726 83.2416 20.586V19.83C83.2883 19.7553 83.4329 19.718 83.6756 19.718C83.7409 19.7087 83.7969 19.704 83.8436 19.704C83.8996 19.704 83.9463 19.704 83.9836 19.704H84.1236C84.1796 19.704 84.2916 19.704 84.4596 19.704C84.6369 19.6947 84.7909 19.676 84.9216 19.648C84.9496 19.6293 85.0056 19.606 85.0896 19.578C85.1736 19.55 85.2249 19.536 85.2436 19.536L86.8536 19.578C86.8629 19.6433 86.8909 19.704 86.9376 19.76C86.9936 19.8067 87.0543 19.8533 87.1196 19.9C87.1849 19.9373 87.2456 19.97 87.3016 19.998C87.3669 20.026 87.4136 20.0493 87.4416 20.068C87.5349 20.068 87.6143 20.0727 87.6796 20.082C87.7449 20.082 87.8056 20.0867 87.8616 20.096C87.9456 20.1053 88.0763 20.1053 88.2536 20.096L88.4496 20.306ZM85.2436 27.418L87.1056 27.572C87.2269 27.544 87.3296 27.516 87.4136 27.488C87.5069 27.46 87.5956 27.4227 87.6796 27.376C87.7636 27.32 87.8523 27.2453 87.9456 27.152C88.0483 27.0587 88.1696 26.9327 88.3096 26.774L88.5756 25.92L88.2256 24.884L86.2796 24.198L85.5236 24.184C85.3929 24.2307 85.2996 24.324 85.2436 24.464C85.1876 24.5947 85.1596 24.73 85.1596 24.87C85.1689 25.15 85.1876 25.276 85.2156 25.248C85.2249 25.2853 85.2063 25.374 85.1596 25.514C85.1223 25.6447 85.0989 25.8313 85.0896 26.074C85.0803 26.1953 85.0756 26.3027 85.0756 26.396C85.0756 26.4893 85.0756 26.5687 85.0756 26.634V26.858L85.0616 27.152L85.2436 27.418ZM85.3976 20.824L85.4116 21.342L85.2156 21.664L85.3976 22.168V23.05L85.6076 23.274H85.9576C86.0603 23.2647 86.1536 23.2693 86.2376 23.288C86.3309 23.2973 86.3869 23.302 86.4056 23.302C86.5083 23.302 86.5783 23.2833 86.6156 23.246C86.6623 23.1993 86.6903 23.176 86.6996 23.176C86.7276 23.176 86.7789 23.1993 86.8536 23.246L87.1336 23.064C87.1149 22.98 87.1149 22.896 87.1336 22.812C87.1429 22.7373 87.1569 22.6627 87.1756 22.588C87.1943 22.504 87.2316 22.4247 87.2876 22.35C87.3809 22.21 87.4416 22.1073 87.4696 22.042C87.5069 21.9673 87.5396 21.8833 87.5676 21.79C87.5396 21.65 87.4976 21.538 87.4416 21.454C87.3949 21.3607 87.3436 21.286 87.2876 21.23C87.2316 21.1647 87.1803 21.1087 87.1336 21.062C87.0963 21.0153 87.0729 20.964 87.0636 20.908C86.9889 20.824 86.9329 20.7307 86.8956 20.628C86.8583 20.5253 86.8256 20.474 86.7976 20.474L86.2516 20.362L85.6776 20.488L85.3976 20.824ZM99.7193 27.922L97.7593 28.16L97.3533 27.502C97.3533 27.3807 97.2599 27.3853 97.0733 27.516C97.0266 27.544 96.9799 27.5907 96.9333 27.656C96.8866 27.7213 96.8399 27.7867 96.7933 27.852C96.7653 27.8893 96.7373 27.9267 96.7093 27.964C96.6813 28.0013 96.6533 28.0433 96.6253 28.09C96.3359 28.3047 96.0373 28.4447 95.7293 28.51C95.4306 28.5753 95.1739 28.5333 94.9593 28.384C94.8006 28.3653 94.6933 28.328 94.6373 28.272C94.6093 28.2533 94.5719 28.2207 94.5253 28.174L93.6293 28.118L93.2513 27.936L92.9013 27.054L92.9713 26.76L92.6633 25.528L93.2513 24.548L93.7273 24.114C93.9046 24.0207 94.1099 23.946 94.3433 23.89C94.5766 23.834 94.8099 23.7967 95.0433 23.778C95.2766 23.75 95.5006 23.7453 95.7153 23.764C95.9299 23.7733 96.1073 23.8013 96.2473 23.848C96.2473 23.9973 96.2939 24.0953 96.3873 24.142C96.4806 24.1887 96.6626 24.24 96.9333 24.296C97.0266 24.1373 97.0733 23.946 97.0733 23.722C97.0733 23.4887 97.0313 23.246 96.9473 22.994L96.7233 22.28C96.6486 22.252 96.5319 22.2053 96.3733 22.14C96.2239 22.0653 96.0979 22.0047 95.9953 21.958L95.3933 22.056L94.7773 22.182L94.6373 21.958L94.7913 21.594L94.8893 21.37L95.0853 21.328L95.7293 21.216L96.3033 21.412L96.9333 21.314L98.1513 21.678L98.6693 22.462L98.8513 24.688L98.8093 25.388L99.1173 27.026L99.2993 27.11H99.7333L99.9153 27.6L99.7193 27.922ZM94.5813 25.64C94.5346 25.8827 94.5346 26.088 94.5813 26.256C94.6373 26.424 94.7259 26.564 94.8473 26.676L95.0573 27.11C95.2253 27.166 95.3839 27.208 95.5333 27.236C95.6826 27.264 95.8366 27.2687 95.9953 27.25C96.1633 27.222 96.3359 27.1707 96.5133 27.096C96.6999 27.012 96.9146 26.8907 97.1573 26.732L97.1853 26.018L96.9333 24.772C96.8026 24.7253 96.6859 24.702 96.5833 24.702C96.4899 24.702 96.3966 24.7113 96.3033 24.73C96.1913 24.758 96.0606 24.7813 95.9113 24.8C95.7619 24.8187 95.6079 24.842 95.4493 24.87C95.2999 24.8887 95.1599 24.9167 95.0293 24.954C94.9079 24.982 94.8193 25.024 94.7633 25.08L94.5813 25.64ZM107.959 22.728V23.246L107.875 23.33L106.601 23.064L105.481 23.582L105.173 24.296C104.893 24.856 104.688 25.3647 104.557 25.822C104.427 26.27 104.441 26.6527 104.599 26.97L105.005 27.67L106.475 27.418L107.091 27.208H108.239L108.379 27.698L106.811 28.146L104.599 28.608L103.927 28.174H102.779L102.345 27.698C102.233 27.166 102.247 26.6293 102.387 26.088C102.527 25.5373 102.737 24.9773 103.017 24.408L104.585 23.274L104.977 22.602L105.425 22.434L105.733 22.182L107.861 22.448L107.959 22.728ZM114.79 25.486C114.678 25.5047 114.58 25.542 114.496 25.598C114.412 25.654 114.337 25.7147 114.272 25.78C114.216 25.836 114.164 25.892 114.118 25.948C114.071 25.9947 114.029 26.0227 113.992 26.032C113.945 26.004 113.884 25.99 113.81 25.99C113.735 25.9807 113.66 25.9947 113.586 26.032C113.52 26.06 113.469 26.116 113.432 26.2C113.404 26.2747 113.413 26.382 113.46 26.522L113.516 27.516L113.46 28.034V28.3L113.194 28.678L112.732 28.79H111.808C111.705 28.8087 111.621 28.7947 111.556 28.748C111.5 28.692 111.472 28.5567 111.472 28.342V28.314L111.696 27.474L111.738 26.522L111.836 24.73L112.004 23.526C111.994 23.4793 111.985 23.3907 111.976 23.26C111.966 23.1293 111.952 22.966 111.934 22.77C111.924 22.5647 111.915 22.3967 111.906 22.266C111.906 22.1353 111.906 22.0327 111.906 21.958C111.906 21.9767 111.938 21.9533 112.004 21.888C112.069 21.8133 112.125 21.7247 112.172 21.622C112.218 21.51 112.237 21.3887 112.228 21.258C112.218 21.1273 112.139 21.006 111.99 20.894L112.13 19.732C112.195 19.6947 112.2 19.5827 112.144 19.396L112.424 19.116L112.606 19.088C112.68 19.1067 112.755 19.1207 112.83 19.13C112.914 19.13 113.007 19.1393 113.11 19.158C113.194 19.1767 113.268 19.1907 113.334 19.2C113.408 19.2 113.474 19.214 113.53 19.242L113.81 19.396V19.662C113.828 19.7087 113.847 19.7833 113.866 19.886C113.884 19.9793 113.898 20.096 113.908 20.236C113.908 20.3013 113.903 20.376 113.894 20.46C113.884 20.544 113.875 20.6233 113.866 20.698C113.866 20.7727 113.861 20.838 113.852 20.894C113.842 20.95 113.838 20.9827 113.838 20.992C113.838 21.0013 113.833 21.0247 113.824 21.062C113.824 21.0993 113.819 21.1367 113.81 21.174C113.8 21.2113 113.791 21.244 113.782 21.272C113.772 21.3 113.763 21.3093 113.754 21.3C113.744 21.3 113.73 21.328 113.712 21.384C113.702 21.44 113.688 21.51 113.67 21.594C113.66 21.6687 113.651 21.748 113.642 21.832C113.632 21.916 113.632 21.9813 113.642 22.028C113.651 22.0747 113.66 22.1493 113.67 22.252C113.679 22.3453 113.688 22.476 113.698 22.644C113.698 22.728 113.698 22.8027 113.698 22.868C113.707 22.9333 113.712 22.9893 113.712 23.036C113.712 23.092 113.716 23.134 113.726 23.162L113.642 24.184L113.39 24.394C113.259 24.6553 113.198 24.8373 113.208 24.94C113.226 25.0427 113.282 25.1267 113.376 25.192C113.544 25.164 113.66 25.1407 113.726 25.122C113.791 25.1033 113.842 25.0707 113.88 25.024C113.917 24.9773 113.95 24.9167 113.978 24.842C114.015 24.7673 114.09 24.66 114.202 24.52C114.202 24.5387 114.286 24.4967 114.454 24.394C114.603 24.3007 114.673 24.1887 114.664 24.058C114.785 24.002 114.874 23.9553 114.93 23.918C114.986 23.8807 115.051 23.8433 115.126 23.806C115.303 23.6753 115.42 23.5493 115.476 23.428C115.541 23.3067 115.592 23.2507 115.63 23.26C115.658 23.26 115.676 23.2647 115.686 23.274C115.704 23.2833 115.732 23.2973 115.77 23.316C115.816 23.288 115.891 23.2413 115.994 23.176C116.106 23.1013 116.236 22.9987 116.386 22.868C116.479 22.7933 116.563 22.7233 116.638 22.658C116.722 22.5927 116.801 22.5273 116.876 22.462L117.226 22.504L117.464 23.008L117.31 23.106C117.254 23.162 117.198 23.232 117.142 23.316C117.086 23.4 117.03 23.484 116.974 23.568C116.927 23.6427 116.876 23.7127 116.82 23.778C116.764 23.834 116.708 23.8667 116.652 23.876C116.418 24.0627 116.157 24.2353 115.868 24.394C115.588 24.5527 115.312 24.7253 115.042 24.912C114.995 24.94 114.953 24.9727 114.916 25.01C114.878 25.038 114.841 25.066 114.804 25.094C114.785 25.1127 114.776 25.1453 114.776 25.192C114.785 25.2293 114.794 25.2713 114.804 25.318C114.813 25.3553 114.818 25.3927 114.818 25.43C114.818 25.4673 114.808 25.486 114.79 25.486ZM118.066 28.538L117.086 29.028L116.792 28.958L116.456 28.51C116.418 28.4633 116.386 28.4167 116.358 28.37C116.33 28.314 116.292 28.2533 116.246 28.188C116.143 28.02 116.04 27.88 115.938 27.768C115.844 27.6467 115.779 27.5487 115.742 27.474C115.732 27.4553 115.714 27.4227 115.686 27.376C115.658 27.3293 115.606 27.2873 115.532 27.25L115.476 26.508C115.513 26.4893 115.48 26.4427 115.378 26.368C115.284 26.284 115.186 26.1813 115.084 26.06C114.925 25.7987 114.883 25.6167 114.958 25.514C115.088 25.5327 115.233 25.5467 115.392 25.556C115.56 25.5653 115.742 25.5607 115.938 25.542C116.003 25.5327 116.059 25.528 116.106 25.528C116.152 25.528 116.199 25.528 116.246 25.528L116.442 25.724C116.442 25.7333 116.437 25.738 116.428 25.738C116.428 25.738 116.428 25.7427 116.428 25.752C116.446 25.78 116.474 25.8267 116.512 25.892C116.558 25.9573 116.619 26.0507 116.694 26.172C116.806 26.2653 116.885 26.3493 116.932 26.424C116.978 26.4987 117.011 26.5687 117.03 26.634C117.048 26.6993 117.062 26.7647 117.072 26.83C117.081 26.8953 117.109 26.97 117.156 27.054C117.184 27.082 117.226 27.1287 117.282 27.194C117.338 27.25 117.408 27.32 117.492 27.404C117.576 27.488 117.636 27.5533 117.674 27.6C117.711 27.6467 117.734 27.6747 117.744 27.684C117.762 27.7027 117.762 27.7213 117.744 27.74C117.734 27.7587 117.734 27.768 117.744 27.768L118.094 28.286L118.066 28.538Z" fill="#FF0000"/>
</svg>
